<svg width="1431" height="1742" xmlns="http://www.w3.org/2000/svg" preserveAspectRatio="xMidYMid meet">

 <g>
  <title>background</title>
  <rect fill="none" id="canvas_background" height="402" width="582" y="-1" x="-1"/>
 </g>
 <g>
  <title>Layer 1</title>
  <g stroke-opacity="0" id="svg_1" fill="#05bbb0" transform="translate(0,1742) scale(0.10000000149011612,-0.10000000149011612) ">
   <path stroke="#00bbb0" fill="#b0bb5b" id="svg_2" d="m7101.027042,17162.999969c-206,-217 -271,-287 -370,-398c-49,-55 -91,-102 -94,-105c-34,-33 -306,-353 -425,-500c-38,-47 -71,-87 -74,-90c-3,-3 -35,-43 -71,-90c-35,-47 -67,-87 -70,-90c-5,-4 -188,-248 -233,-310c-131,-183 -180,-254 -292,-420c-466,-695 -850,-1419 -1130,-2130c-395,-1001 -631,-1984 -725,-3018c-38,-415 -42,-1033 -11,-1417c19,-220 4,-193 144,-272c521,-296 1009,-689 1390,-1117c44,-50 94,-107 111,-126c97,-108 324,-417 435,-591c279,-438 516,-968 652,-1455l33,-121l101,-17c253,-41 385,-50 715,-50c244,0 363,4 478,17c140,16 409,61 418,69c2,2 19,58 38,124c47,159 119,370 163,474c20,47 52,123 71,170c20,47 71,155 113,240c378,767 913,1421 1594,1952c192,150 531,370 750,487c33,18 65,38 72,44c16,17 41,288 54,593c21,484 -18,1028 -111,1554c-81,458 -256,1119 -450,1700c-97,292 -265,746 -321,868c-16,35 -29,65 -29,68c0,2 -43,102 -96,222c-444,1005 -1018,1944 -1713,2802c-174,215 -371,448 -466,550c-29,30 -74,80 -101,110c-126,140 -395,420 -403,420c-4,0 -70,-66 -147,-147zm314,-3485c9,-9 12,-107 12,-380c0,-202 2,-368 5,-368c2,0 28,23 57,51c114,110 260,197 416,248c121,40 156,45 176,26c37,-38 16,-61 -76,-84c-207,-53 -391,-168 -536,-335l-42,-49l0,-293c0,-162 4,-294 8,-294c4,0 28,21 52,46c170,174 439,326 660,372c93,19 112,14 108,-30c-3,-31 -4,-32 -108,-59c-243,-63 -421,-167 -598,-346c-133,-135 -122,-86 -122,-537l0,-389l98,94c243,236 536,397 823,453c75,15 99,8 99,-28c0,-31 -16,-42 -70,-51c-85,-14 -279,-84 -387,-139c-192,-99 -402,-270 -522,-424l-41,-54l0,-444l0,-445l87,91c248,260 561,445 912,536c121,31 148,31 163,-1c15,-32 -2,-52 -51,-61c-351,-61 -765,-300 -1007,-582c-115,-134 -104,-61 -104,-669c0,-293 1,-533 3,-533c2,0 66,62 143,138c199,198 368,318 600,429c184,87 495,182 551,168c20,-5 24,-11 21,-38c-3,-31 -5,-32 -83,-50c-321,-74 -645,-233 -895,-442c-96,-80 -253,-244 -303,-317l-37,-53l2,-829l3,-829l49,94c245,469 668,888 1186,1175c200,111 285,148 310,134c15,-8 20,-19 18,-37c-3,-23 -22,-36 -143,-97c-143,-73 -276,-145 -285,-155c-3,-3 -39,-28 -80,-55c-244,-160 -451,-346 -650,-584c-161,-193 -338,-500 -400,-695c-14,-44 -41,-63 -70,-47c-20,11 -20,21 -20,3383c0,2610 3,3376 12,3385c7,7 19,12 28,12c9,0 21,-5 28,-12zm-248,-17c7,-14 10,-1082 10,-3379c0,-2917 -2,-3361 -14,-3372c-8,-6 -25,-10 -37,-8c-18,2 -31,24 -69,118c-104,258 -232,461 -434,695c-253,291 -578,536 -966,730c-123,62 -130,67 -130,95c0,55 32,49 196,-34c82,-41 177,-92 211,-113c34,-21 89,-54 121,-74c33,-20 106,-72 163,-114c352,-263 626,-577 820,-940l49,-90l0,844l0,844l-56,69c-89,108 -183,199 -350,337c-52,44 -229,153 -323,201c-145,72 -262,115 -431,159c-136,35 -145,38 -148,62c-6,47 18,54 111,35c317,-67 631,-217 892,-427c44,-35 131,-115 193,-177l112,-113l0,544l0,543l-37,45c-184,222 -421,404 -679,521c-101,46 -268,101 -356,118c-71,13 -86,28 -73,71c6,19 12,21 59,15c128,-17 347,-92 504,-173c181,-94 365,-232 509,-383l73,-75l0,443c0,502 8,449 -85,551c-224,248 -526,424 -838,492c-75,16 -92,29 -84,61c10,37 34,39 139,13c307,-77 564,-222 786,-445l82,-83l0,400l0,399l-52,59c-185,207 -397,338 -658,406c-94,25 -110,33 -110,59c0,36 26,44 95,32c215,-40 481,-182 650,-348l75,-73l0,302l0,302l-55,62c-114,128 -309,249 -470,292c-114,31 -125,37 -125,65c0,41 20,49 92,32c185,-43 360,-135 496,-261c33,-30 61,-55 63,-55c2,0 3,158 1,350c-2,233 1,357 8,370c14,26 56,26 70,1z"/>
   <path stroke="#00bbb0" fill="#b0bb5b" id="svg_3" d="m4887.027042,14712.999969c-58,-24 -139,-58 -180,-75c-172,-70 -544,-263 -775,-403c-261,-157 -578,-389 -810,-590c-285,-248 -605,-580 -827,-860c-191,-240 -414,-572 -556,-825c-327,-589 -530,-1120 -666,-1746c-226,-1038 -186,-2138 114,-3138c415,-1387 1301,-2600 2490,-3408c757,-515 1616,-859 2524,-1013c82,-14 156,-25 163,-25c11,0 13,83 13,445l0,445l-22,5c-13,2 -75,14 -138,25c-351,64 -837,212 -1140,347c-239,107 -396,186 -560,281c-52,30 -115,67 -140,81c-25,14 -49,29 -55,33c-5,5 -59,40 -120,80c-178,115 -447,322 -610,468c-61,54 -414,407 -471,470c-276,309 -558,719 -760,1105c-87,167 -211,440 -244,535c-5,14 -18,50 -30,80c-120,309 -238,769 -289,1135c-38,270 -65,691 -49,753c16,58 54,63 238,32c434,-73 919,-220 1315,-401c72,-32 134,-59 139,-59c4,0 5,21 2,48c-23,187 -34,616 -25,958c31,1150 299,2419 753,3568c203,511 478,1074 765,1563c39,67 71,124 71,127c0,10 -10,6 -120,-41z"/>
   <path stroke="#00bbb0" fill="#b0bb5b" id="svg_4" d="m9502.027042,14657.999969c195,-343 455,-858 595,-1183c45,-104 88,-203 95,-220c62,-138 231,-586 316,-835c209,-612 412,-1381 498,-1890c106,-627 135,-1317 80,-1883c-7,-64 -9,-120 -6,-124c4,-3 46,12 94,35c382,176 946,344 1351,402c84,12 118,-3 128,-57c8,-42 -1,-278 -16,-452c-104,-1152 -599,-2275 -1389,-3150c-193,-215 -467,-471 -706,-663c-163,-131 -494,-355 -655,-444c-19,-10 -39,-23 -45,-27c-27,-22 -494,-257 -510,-257c-3,0 -32,-12 -63,-26c-261,-120 -725,-266 -1062,-334l-135,-27l-6,-99c-4,-54 -7,-257 -8,-449l-1,-351l38,4c284,27 523,78 852,182c400,125 572,189 850,312c99,44 459,228 523,266c37,23 70,42 72,42c12,0 281,172 420,268c500,347 973,790 1346,1262c145,184 179,231 300,415c43,66 82,125 86,130c21,25 197,333 256,445c239,457 430,968 553,1485c20,82 39,170 44,195c4,25 17,97 28,160c97,538 118,1160 57,1740c-93,890 -387,1783 -833,2531c-68,115 -215,344 -266,414c-43,60 -227,307 -244,327c-11,12 -46,55 -78,93c-197,237 -543,586 -769,775c-143,120 -304,248 -351,280c-12,8 -67,46 -121,85c-128,91 -213,146 -353,229c-63,38 -140,83 -170,101c-176,105 -788,385 -840,385c-5,0 16,-42 45,-92z"/>
   <path stroke="#00bbb0" fill="#b0bb5b" id="svg_5" d="m1917.027042,8717.999969c0,-149 46,-551 84,-748c145,-732 374,-1300 778,-1929c44,-68 84,-129 89,-135c5,-6 45,-60 89,-119c229,-312 458,-558 820,-882c120,-107 324,-260 520,-390c499,-331 1040,-574 1605,-720c141,-37 342,-80 418,-90l47,-6l0,84c0,211 -72,742 -129,952c-10,39 -12,40 -93,65c-220,65 -510,196 -733,330c-66,40 -122,76 -125,80c-3,4 -14,12 -25,18c-53,27 -217,156 -340,267c-387,347 -678,733 -940,1250c-235,465 -397,941 -505,1486c-11,56 -11,56 -68,82c-31,14 -118,53 -192,87c-337,154 -743,282 -1137,360c-84,16 -155,30 -158,30c-3,0 -5,-33 -5,-72z"/>
   <path stroke="#00bbb0" fill="#b0bb5b" id="svg_6" d="m12317.027042,8749.999969c-294,-61 -565,-143 -875,-266c-148,-58 -395,-169 -395,-177c0,-2 -12,-62 -26,-133c-181,-917 -569,-1778 -1068,-2370c-92,-109 -346,-358 -449,-440c-287,-229 -576,-383 -918,-492c-103,-33 -305,-82 -337,-82c-24,0 -26,-4 -56,-138c-60,-264 -101,-559 -120,-869c-5,-69 -3,-83 9,-83c21,0 231,46 330,71c657,172 1215,430 1795,830c51,35 194,141 200,148c3,3 50,42 105,86c198,157 487,438 671,650c433,500 764,1059 982,1657c188,515 284,976 318,1531c8,126 27,117 -166,77z"/>
   <path stroke="#00bbb0" fill="#b0bb5b" id="svg_7" d="m10804.027042,8179.999969c-14,-11 -28,-20 -31,-20c-10,0 -241,-144 -351,-219c-597,-406 -1141,-970 -1525,-1581c-120,-191 -290,-508 -367,-685c-115,-264 -265,-686 -249,-702c13,-14 300,71 466,136c82,33 274,132 370,191c349,214 678,539 939,925c343,509 623,1177 766,1830c14,66 28,126 30,133c7,18 -19,14 -48,-8z"/>
   <path stroke="#00bbb0" fill="#b0bb5b" id="svg_8" d="m3671.027042,8132.999969c15,-80 78,-325 123,-468c143,-465 343,-898 590,-1279c240,-368 536,-690 864,-939c17,-14 47,-34 139,-98c67,-47 228,-141 335,-196c139,-72 440,-191 452,-179c3,3 -20,85 -52,183c-234,731 -626,1407 -1136,1963c-252,275 -488,488 -769,696c-170,126 -523,354 -547,354c-3,0 -2,-17 1,-37z"/>
   <path stroke="#00bbb0" fill="#b0bb5b" id="svg_9" d="m7966.027042,4734.999969c-9,-8 -305,-44 -469,-56c-274,-20 -673,-5 -963,37c-60,8 -111,14 -113,11c-2,-2 7,-59 20,-128c14,-68 34,-189 45,-269c48,-334 53,-425 58,-1136l5,-681l67,-6c214,-20 501,-29 716,-23c227,5 450,19 523,31l32,6l0,362c1,698 21,1111 70,1434c18,121 64,364 76,406c4,14 -1,17 -29,17c-18,0 -36,-2 -38,-5z"/>
   <path stroke="#00bbb0" fill="#b0bb5b" id="svg_10" d="m7377.027042,989.999969l0,-511l88,3l87,3l0,505l0,505l-87,3l-88,3l0,-511z"/>
   <path stroke="#00bbb0" fill="#b0bb5b" id="svg_11" d="m9117.027042,989.999969l0,-511l87,3l87,3l2,216c3,226 9,265 52,313c56,62 214,76 267,22c7,-7 23,-28 34,-47c20,-32 21,-49 21,-271l0,-238l90,0l90,0l0,233c0,310 -16,373 -108,444c-107,82 -287,85 -404,8c-21,-14 -39,-25 -41,-25c-2,0 -3,80 -3,178l1,177l-87,3l-88,3l0,-511z"/>
   <path stroke="#00bbb0" fill="#b0bb5b" id="svg_12" d="m3455.027042,959.999969l2,-480l90,0l90,0l0,205l0,205l245,0l245,0l1,-177c1,-98 2,-189 2,-203c2,-25 4,-25 95,-28l92,-3l0,481l0,480l-96,0l-96,0l2,-187c1,-104 2,-194 1,-200c-1,-10 -57,-13 -246,-13l-245,0l0,200l0,200l-92,0l-93,0l3,-480z"/>
   <path stroke="#00bbb0" fill="#b0bb5b" id="svg_13" d="m8181.027042,1368.999969c-3,-5 -4,-42 -3,-82l2,-72l-62,-3l-63,-3l4,-67l3,-67l56,-3l56,-3l5,-212c5,-234 12,-264 71,-325c67,-69 255,-85 332,-28c20,14 20,15 -1,73c-17,46 -25,57 -40,55c-179,-27 -184,-20 -184,252l0,186l100,0l100,0l0,70l0,70l-100,0l-99,0l-3,83l-3,82l-83,1c-45,1 -85,-3 -88,-7z"/>
   <path stroke="#00bbb0" fill="#b0bb5b" id="svg_14" d="m5108.027042,1197.999969c-174,-59 -276,-258 -227,-446c31,-121 89,-191 204,-245c120,-56 308,-47 414,19c41,26 67,51 68,66c0,3 -19,27 -43,53l-42,47l-39,-26c-49,-33 -96,-46 -167,-46c-114,0 -203,57 -224,143l-7,27l287,0l287,0l-4,88c-6,114 -37,181 -116,252c-99,88 -251,115 -391,68zm254,-152c31,-19 50,-40 69,-77c14,-29 23,-56 20,-60c-3,-5 -95,-9 -205,-9l-199,0l0,23c0,24 42,90 73,116c57,47 168,50 242,7z"/>
   <path stroke="#00bbb0" fill="#b0bb5b" id="svg_15" d="m6312.027042,1205.999969c-64,-17 -101,-32 -143,-58l-32,-20l31,-59c18,-32 36,-59 41,-59c5,0 32,12 61,27c74,38 205,45 265,14c44,-22 68,-57 73,-106l4,-30l-160,-5c-133,-5 -168,-9 -205,-27c-57,-26 -88,-55 -111,-107c-54,-118 12,-252 143,-291c104,-31 244,-12 308,41c16,14 30,22 31,17c1,-4 2,-19 2,-33c2,-24 4,-25 85,-28l83,-3l-3,268c-3,258 -4,270 -27,315c-27,57 -78,103 -140,131c-58,26 -231,33 -306,13zm295,-467c-5,-54 -10,-65 -42,-94c-78,-72 -215,-72 -258,-2c-26,41 -25,78 1,111c28,35 65,44 194,45l111,1l-6,-61z"/>
   <path stroke="#00bbb0" fill="#b0bb5b" id="svg_16" d="m10351.027042,1132.999969c31,-72 169,-387 201,-458c7,-16 29,-69 50,-116l36,-87l-20,-40c-11,-22 -32,-50 -47,-61c-35,-27 -102,-28 -155,-1c-22,12 -43,19 -47,16c-4,-2 -20,-30 -37,-61l-30,-56l23,-19c32,-26 120,-50 184,-50c91,1 170,40 220,110c24,32 147,308 310,690c27,63 58,134 68,157c11,24 20,45 20,48c0,3 -37,5 -83,5l-83,0l-89,-207c-132,-311 -138,-324 -145,-316c-4,5 -56,124 -116,265l-109,258l-92,0l-92,0l33,-77z"/>
  </g>
  <path id="svg_17" d="m227.66191,765.189124" opacity="0.5" stroke-width="1.5" stroke="#000" fill="#7B572D"/>
  <path id="svg_18" d="m572,426" opacity="0.5" stroke-width="1.5" stroke="#000" fill="none"/>
 </g>
</svg>